<?xml version="1.0" encoding="utf-8"?>
<!-- Generator: Adobe Illustrator 23.0.4, SVG Export Plug-In . SVG Version: 6.00 Build 0)  -->
<svg version="1.1" id="Layer_1" xmlns="http://www.w3.org/2000/svg" xmlns:xlink="http://www.w3.org/1999/xlink" x="0px" y="0px"
	 viewBox="0 0 317.8 62.5" style="enable-background:new 0 0 317.8 62.5;" xml:space="preserve">
<style type="text/css">
	.st0{fill:#F47B20;}
	.st1{fill:#77787B;}
</style>
<g>
	<g>
		<path class="st0" d="M43.8,50.9c-3.6,2.3-8,3.7-12.6,3.7c-12.9,0-23.4-10.5-23.4-23.4c0-12.9,10.5-23.4,23.4-23.4
			c12.9,0,23.4,10.5,23.4,23.4c0,5.5-1.9,10.5-5,14.4l5.6,5.6c4.5-5.4,7.3-12.4,7.3-20C62.5,14,48.5,0,31.2,0C14,0,0,14,0,31.2
			c0,17.2,14,31.2,31.2,31.2c6.8,0,13.1-2.2,18.2-5.9L43.8,50.9z"/>
		<path class="st0" d="M31.2,15.6c-8.6,0-15.6,7-15.6,15.6c0,8.6,7,15.6,15.6,15.6c8.6,0,15.6-7,15.6-15.6
			C46.8,22.6,39.9,15.6,31.2,15.6z M26.5,35.9h-3.1v-3.1h3.1V35.9z M32.8,35.9h-3.1v-6.2h3.1V35.9z M39,35.9h-3.1v-9.4H39V35.9z"/>
	</g>
	<g>
		<path class="st0" d="M154.2,14.6h5.4v21.7h-5.4V34c-1.1,1-2.1,1.7-3.2,2.2c-1.1,0.4-2.2,0.7-3.5,0.7c-2.8,0-5.2-1.1-7.3-3.3
			c-2-2.2-3.1-4.9-3.1-8.1c0-3.4,1-6.1,3-8.2c2-2.1,4.4-3.2,7.2-3.2c1.3,0,2.5,0.2,3.7,0.7c1.1,0.5,2.2,1.2,3.2,2.2V14.6z
			 M148.5,19.1c-1.7,0-3.1,0.6-4.2,1.8c-1.1,1.2-1.7,2.7-1.7,4.6c0,1.9,0.6,3.4,1.7,4.6c1.1,1.2,2.5,1.8,4.2,1.8
			c1.7,0,3.1-0.6,4.3-1.8c1.1-1.2,1.7-2.8,1.7-4.7c0-1.9-0.6-3.4-1.7-4.6C151.6,19.7,150.2,19.1,148.5,19.1z"/>
		<path class="st1" d="M161.2,14.6h4.7v2.7c0.5-1.1,1.2-1.9,2-2.5c0.8-0.6,1.8-0.8,2.8-0.8c0.7,0,1.4,0.2,2.2,0.6l-1.7,4.7
			c-0.6-0.3-1.2-0.5-1.6-0.5c-0.8,0-1.5,0.5-2.1,1.6c-0.6,1-0.9,3.1-0.9,6.1l0,1.1v8.8h-5.4V14.6z"/>
		<path class="st1" d="M195.8,27.1h-17.5c0.3,1.5,0.9,2.8,2,3.7c1.1,0.9,2.5,1.4,4.2,1.4c2,0,3.8-0.7,5.3-2.1l4.6,2.2
			c-1.1,1.6-2.5,2.8-4.1,3.6c-1.6,0.8-3.5,1.2-5.7,1.2c-3.4,0-6.2-1.1-8.3-3.2c-2.1-2.1-3.2-4.8-3.2-8.1c0-3.3,1.1-6.1,3.2-8.3
			c2.1-2.2,4.8-3.3,8-3.3c3.4,0,6.2,1.1,8.3,3.3c2.1,2.2,3.2,5.1,3.2,8.7L195.8,27.1z M190.3,22.8c-0.4-1.2-1.1-2.2-2.1-3
			c-1.1-0.8-2.3-1.1-3.7-1.1c-1.5,0-2.9,0.4-4,1.3c-0.7,0.5-1.4,1.5-2,2.8H190.3z"/>
		<path class="st1" d="M212.4,17.7l-3.4,3.4c-1.4-1.4-2.6-2-3.7-2c-0.6,0-1.1,0.1-1.4,0.4c-0.3,0.3-0.5,0.6-0.5,1
			c0,0.3,0.1,0.6,0.3,0.8c0.2,0.2,0.8,0.6,1.6,1l2,1c2.1,1,3.5,2.1,4.3,3.2c0.8,1.1,1.2,2.3,1.2,3.8c0,1.9-0.7,3.5-2.1,4.8
			c-1.4,1.3-3.3,1.9-5.7,1.9c-3.2,0-5.7-1.2-7.6-3.7l3.4-3.7c0.6,0.7,1.4,1.3,2.2,1.8c0.9,0.5,1.6,0.7,2.3,0.7
			c0.7,0,1.3-0.2,1.7-0.5c0.4-0.3,0.7-0.7,0.7-1.2c0-0.8-0.8-1.7-2.4-2.5l-1.8-0.9c-3.5-1.8-5.3-4-5.3-6.7c0-1.7,0.7-3.2,2-4.4
			c1.3-1.2,3-1.8,5.1-1.8c1.4,0,2.7,0.3,4,0.9C210.5,15.6,211.6,16.5,212.4,17.7z"/>
		<path class="st1" d="M237.2,27.1h-17.5c0.3,1.5,0.9,2.8,2,3.7c1.1,0.9,2.5,1.4,4.2,1.4c2,0,3.8-0.7,5.3-2.1l4.6,2.2
			c-1.1,1.6-2.5,2.8-4.1,3.6c-1.6,0.8-3.5,1.2-5.7,1.2c-3.4,0-6.2-1.1-8.3-3.2c-2.1-2.1-3.2-4.8-3.2-8.1c0-3.3,1.1-6.1,3.2-8.3
			c2.1-2.2,4.8-3.3,8-3.3c3.4,0,6.2,1.1,8.3,3.3c2.1,2.2,3.2,5.1,3.2,8.7L237.2,27.1z M231.8,22.8c-0.4-1.2-1.1-2.2-2.1-3
			c-1.1-0.8-2.3-1.1-3.7-1.1c-1.5,0-2.9,0.4-4,1.3c-0.7,0.5-1.4,1.5-2,2.8H231.8z"/>
		<path class="st1" d="M255.9,14.6h5.5v21.7h-5.5V34c-1.1,1-2.1,1.7-3.2,2.2c-1.1,0.4-2.2,0.7-3.5,0.7c-2.8,0-5.2-1.1-7.3-3.3
			c-2-2.2-3.1-4.9-3.1-8.1c0-3.4,1-6.1,3-8.2c2-2.1,4.4-3.2,7.2-3.2c1.3,0,2.5,0.2,3.7,0.7c1.1,0.5,2.2,1.2,3.2,2.2V14.6z
			 M250.2,19.1c-1.7,0-3.1,0.6-4.2,1.8c-1.1,1.2-1.7,2.7-1.7,4.6c0,1.9,0.6,3.4,1.7,4.6c1.1,1.2,2.5,1.8,4.2,1.8
			c1.7,0,3.1-0.6,4.3-1.8c1.1-1.2,1.7-2.8,1.7-4.7c0-1.9-0.6-3.4-1.7-4.6C253.4,19.7,251.9,19.1,250.2,19.1z"/>
		<path class="st1" d="M262.9,14.6h4.7v2.7c0.5-1.1,1.2-1.9,2-2.5c0.8-0.6,1.8-0.8,2.8-0.8c0.7,0,1.4,0.2,2.2,0.6l-1.7,4.7
			c-0.6-0.3-1.2-0.5-1.6-0.5c-0.8,0-1.5,0.5-2.1,1.6c-0.6,1-0.9,3.1-0.9,6.1l0,1.1v8.8h-5.4V14.6z"/>
		<path class="st1" d="M296.9,19l-4.5,2.5c-0.9-0.9-1.7-1.5-2.5-1.9c-0.8-0.3-1.8-0.5-2.9-0.5c-2,0-3.7,0.6-4.9,1.8
			c-1.3,1.2-1.9,2.8-1.9,4.7c0,1.8,0.6,3.4,1.8,4.5c1.2,1.2,2.8,1.8,4.8,1.8c2.4,0,4.3-0.8,5.7-2.5l4.3,2.9c-2.3,3-5.6,4.5-9.9,4.5
			c-3.8,0-6.8-1.1-9-3.4c-2.2-2.3-3.2-4.9-3.2-7.9c0-2.1,0.5-4,1.6-5.8c1.1-1.8,2.5-3.2,4.4-4.2c1.9-1,4-1.5,6.3-1.5
			c2.2,0,4.1,0.4,5.8,1.3C294.4,16.2,295.8,17.4,296.9,19z"/>
		<path class="st1" d="M298.5,6.2h5.4v10.6c1.1-0.9,2.1-1.6,3.2-2.1c1.1-0.5,2.2-0.7,3.3-0.7c2.2,0,4,0.7,5.5,2.2
			c1.3,1.3,1.9,3.2,1.9,5.7v14.4h-5.4v-9.5c0-2.5-0.1-4.2-0.4-5.1c-0.2-0.9-0.6-1.6-1.2-2c-0.6-0.4-1.3-0.7-2.1-0.7
			c-1.1,0-2,0.4-2.8,1.1c-0.8,0.7-1.3,1.7-1.6,3c-0.2,0.7-0.2,2.1-0.2,4.5v8.7h-5.4V6.2z"/>
		<path class="st0" d="M78.5,14.6h5.5v2.2c1.2-1,2.4-1.8,3.4-2.2c1-0.4,2-0.6,3.1-0.6c2.2,0,4,0.8,5.5,2.3c1.3,1.3,1.9,3.2,1.9,5.7
			v14.4h-5.4v-9.5c0-2.6-0.1-4.3-0.3-5.2c-0.2-0.9-0.6-1.5-1.2-1.9c-0.6-0.4-1.3-0.7-2.1-0.7c-1.1,0-2.1,0.4-2.8,1.1
			c-0.8,0.7-1.3,1.8-1.6,3.1c-0.2,0.7-0.2,2.1-0.2,4.4v8.7h-5.5V14.6z"/>
		<path class="st0" d="M99.4,14.6h5.5v10.5c0,2,0.1,3.5,0.4,4.2c0.3,0.8,0.7,1.4,1.4,1.8c0.6,0.4,1.4,0.7,2.3,0.7
			c0.9,0,1.7-0.2,2.3-0.6c0.6-0.4,1.1-1.1,1.4-1.9c0.2-0.6,0.3-2,0.3-4V14.6h5.5v9.2c0,3.8-0.3,6.4-0.9,7.8c-0.7,1.7-1.8,3-3.2,3.9
			c-1.4,0.9-3.2,1.4-5.4,1.4c-2.4,0-4.3-0.5-5.8-1.6c-1.5-1.1-2.5-2.5-3.1-4.5c-0.4-1.3-0.6-3.7-0.6-7.2V14.6z"/>
		<path class="st0" d="M135.1,17.6l-3.4,3.4c-1.4-1.4-2.6-2-3.7-2c-0.6,0-1.1,0.1-1.4,0.4c-0.3,0.3-0.5,0.6-0.5,1
			c0,0.3,0.1,0.6,0.3,0.8c0.2,0.2,0.8,0.6,1.6,1l2,1c2.1,1,3.5,2.1,4.3,3.2c0.8,1.1,1.2,2.3,1.2,3.8c0,1.9-0.7,3.5-2.1,4.8
			c-1.4,1.3-3.3,1.9-5.7,1.9c-3.2,0-5.7-1.2-7.6-3.7l3.4-3.7c0.6,0.7,1.4,1.3,2.2,1.8c0.9,0.5,1.6,0.7,2.3,0.7
			c0.7,0,1.3-0.2,1.7-0.5c0.4-0.3,0.7-0.7,0.7-1.2c0-0.8-0.8-1.7-2.4-2.5l-1.8-0.9c-3.5-1.8-5.3-4-5.3-6.6c0-1.7,0.7-3.2,2-4.4
			c1.3-1.2,3-1.8,5.1-1.8c1.4,0,2.7,0.3,4,0.9C133.2,15.6,134.3,16.5,135.1,17.6z"/>
		<path class="st0" d="M154.2,14.6h5.5v21.7h-5.5V34c-1.1,1-2.1,1.7-3.2,2.2c-1.1,0.4-2.2,0.7-3.5,0.7c-2.8,0-5.2-1.1-7.3-3.3
			c-2-2.2-3.1-4.9-3.1-8.1c0-3.4,1-6.1,3-8.2c2-2.1,4.4-3.2,7.2-3.2c1.3,0,2.5,0.2,3.7,0.7c1.1,0.5,2.2,1.2,3.2,2.2V14.6z
			 M148.5,19.1c-1.7,0-3.1,0.6-4.2,1.8c-1.1,1.2-1.7,2.7-1.7,4.6c0,1.9,0.6,3.4,1.7,4.6c1.1,1.2,2.5,1.8,4.2,1.8
			c1.7,0,3.1-0.6,4.3-1.8c1.1-1.2,1.7-2.8,1.7-4.7c0-1.9-0.6-3.4-1.7-4.6C151.6,19.7,150.2,19.1,148.5,19.1z"/>
	</g>
	<g>
		<path class="st1" d="M78.5,44.3v-1.1h5.9v1.1H82V54h-1.1v-9.7H78.5z"/>
		<path class="st1" d="M89.5,45.9c1.2,0,2.2,0.4,3,1.3c0.7,0.8,1.1,1.8,1.1,2.9c0,1.1-0.4,2.1-1.2,2.9c-0.8,0.8-1.8,1.2-3,1.2
			c-1.2,0-2.2-0.4-3-1.2c-0.8-0.8-1.2-1.8-1.2-2.9c0-1.1,0.4-2.1,1.1-2.9C87.3,46.3,88.3,45.9,89.5,45.9z M89.5,46.9
			c-0.9,0-1.6,0.3-2.2,0.9c-0.6,0.6-0.9,1.4-0.9,2.3c0,0.6,0.1,1.1,0.4,1.6c0.3,0.5,0.7,0.9,1.1,1.2c0.5,0.3,1,0.4,1.6,0.4
			s1.1-0.1,1.6-0.4c0.5-0.3,0.9-0.7,1.1-1.2c0.3-0.5,0.4-1,0.4-1.6c0-0.9-0.3-1.7-0.9-2.3C91.1,47.2,90.4,46.9,89.5,46.9z"/>
		<path class="st1" d="M95.6,46.1h1v1.5c0.4-0.6,0.9-1,1.4-1.3c0.5-0.3,1.1-0.4,1.8-0.4c1.1,0,2.1,0.4,2.9,1.2
			c0.8,0.8,1.2,1.8,1.2,2.9c0,1.2-0.4,2.2-1.2,3c-0.8,0.8-1.8,1.2-2.9,1.2c-0.6,0-1.2-0.1-1.7-0.4c-0.5-0.3-1-0.7-1.4-1.2V57h-1
			V46.1z M99.7,46.9c-0.9,0-1.6,0.3-2.2,0.9c-0.6,0.6-0.9,1.4-0.9,2.3c0,0.6,0.1,1.1,0.4,1.6c0.3,0.5,0.7,0.9,1.2,1.1
			c0.5,0.3,1,0.4,1.6,0.4c0.5,0,1.1-0.1,1.6-0.4c0.5-0.3,0.9-0.7,1.2-1.2c0.3-0.5,0.4-1,0.4-1.6c0-0.6-0.1-1.1-0.4-1.6
			c-0.3-0.5-0.7-0.9-1.2-1.2C100.8,47,100.2,46.9,99.7,46.9z"/>
		<path class="st1" d="M115.2,43c1.6,0,3,0.5,4.1,1.6c1.1,1.1,1.6,2.4,1.6,4c0,1.6-0.5,2.9-1.6,4c-1.1,1.1-2.4,1.6-4,1.6
			c-1.6,0-2.9-0.5-4-1.6c-1.1-1.1-1.6-2.4-1.6-4c0-1,0.2-2,0.8-2.9c0.5-0.9,1.2-1.6,2-2.1C113.3,43.3,114.2,43,115.2,43z
			 M115.3,44.1c-0.8,0-1.6,0.2-2.3,0.6c-0.7,0.4-1.3,1-1.7,1.7c-0.4,0.7-0.6,1.5-0.6,2.4c0,1.3,0.4,2.4,1.3,3.2
			c0.9,0.9,2,1.3,3.2,1.3c0.8,0,1.6-0.2,2.3-0.6c0.7-0.4,1.3-1,1.7-1.7c0.4-0.7,0.6-1.5,0.6-2.3c0-0.9-0.2-1.6-0.6-2.3
			c-0.4-0.7-1-1.2-1.7-1.7C116.9,44.3,116.1,44.1,115.3,44.1z"/>
		<path class="st1" d="M123,46.1h1v1.4c0.4-0.5,0.9-1,1.4-1.2c0.5-0.3,1-0.4,1.6-0.4c0.6,0,1.1,0.2,1.6,0.5c0.5,0.3,0.8,0.7,1,1.2
			s0.3,1.3,0.3,2.4V54h-1v-3.8c0-0.9,0-1.5-0.1-1.8c-0.1-0.5-0.3-0.9-0.7-1.2c-0.3-0.3-0.8-0.4-1.3-0.4c-0.6,0-1.2,0.2-1.7,0.6
			c-0.5,0.4-0.8,0.9-1,1.5c-0.1,0.4-0.1,1.1-0.1,2.2V54h-1V46.1z"/>
		<path class="st1" d="M131.9,43h1v11h-1V43z"/>
		<path class="st1" d="M135.5,42.8c0.2,0,0.4,0.1,0.6,0.2c0.2,0.2,0.2,0.4,0.2,0.6c0,0.2-0.1,0.4-0.2,0.6c-0.2,0.2-0.4,0.2-0.6,0.2
			c-0.2,0-0.4-0.1-0.6-0.2c-0.2-0.2-0.2-0.4-0.2-0.6c0-0.2,0.1-0.4,0.2-0.6C135,42.9,135.2,42.8,135.5,42.8z M134.9,46.1h1v8h-1
			V46.1z"/>
		<path class="st1" d="M138.1,46.1h1v1.4c0.4-0.5,0.9-1,1.4-1.2c0.5-0.3,1-0.4,1.6-0.4c0.6,0,1.1,0.2,1.6,0.5c0.5,0.3,0.8,0.7,1,1.2
			s0.3,1.3,0.3,2.4V54h-1v-3.8c0-0.9,0-1.5-0.1-1.8c-0.1-0.5-0.3-0.9-0.7-1.2c-0.3-0.3-0.8-0.4-1.3-0.4c-0.6,0-1.2,0.2-1.7,0.6
			c-0.5,0.4-0.8,0.9-1,1.5c-0.1,0.4-0.1,1.1-0.1,2.2V54h-1V46.1z"/>
		<path class="st1" d="M153.9,51.4l0.9,0.5c-0.3,0.6-0.6,1-1,1.3c-0.4,0.3-0.8,0.6-1.3,0.8c-0.5,0.2-1,0.3-1.6,0.3
			c-1.3,0-2.3-0.4-3-1.3c-0.7-0.9-1.1-1.8-1.1-2.9c0-1,0.3-1.9,0.9-2.7c0.8-1,1.8-1.5,3.2-1.5c1.4,0,2.4,0.5,3.3,1.5
			c0.6,0.7,0.9,1.6,0.9,2.7h-7.2c0,0.9,0.3,1.7,0.9,2.3c0.6,0.6,1.3,0.9,2.1,0.9c0.4,0,0.8-0.1,1.2-0.2c0.4-0.1,0.7-0.3,1-0.6
			C153.3,52.3,153.6,51.9,153.9,51.4z M153.9,49.3c-0.1-0.5-0.3-1-0.6-1.3c-0.3-0.3-0.6-0.6-1-0.8c-0.4-0.2-0.9-0.3-1.4-0.3
			c-0.8,0-1.5,0.3-2,0.8c-0.4,0.4-0.7,0.9-0.9,1.6H153.9z"/>
		<path class="st1" d="M161.4,43.3h2.1c1.2,0,2,0,2.4,0.1c0.6,0.1,1.2,0.5,1.6,0.9c0.4,0.5,0.6,1.1,0.6,1.8c0,0.6-0.1,1.1-0.4,1.5
			c-0.3,0.4-0.7,0.8-1.2,1c-0.5,0.2-1.2,0.3-2.1,0.3l3.9,5h-1.3l-3.9-5h-0.6v5h-1.1V43.3z M162.4,44.3V48l1.9,0
			c0.7,0,1.2-0.1,1.6-0.2c0.3-0.1,0.6-0.4,0.8-0.7c0.2-0.3,0.3-0.6,0.3-1c0-0.4-0.1-0.7-0.3-1c-0.2-0.3-0.5-0.5-0.8-0.6
			c-0.3-0.1-0.8-0.2-1.6-0.2H162.4z"/>
		<path class="st1" d="M176.9,51.4l0.9,0.5c-0.3,0.6-0.6,1-1,1.3c-0.4,0.3-0.8,0.6-1.3,0.8c-0.5,0.2-1,0.3-1.6,0.3
			c-1.3,0-2.3-0.4-3-1.3c-0.7-0.9-1.1-1.8-1.1-2.9c0-1,0.3-1.9,0.9-2.7c0.8-1,1.8-1.5,3.2-1.5c1.4,0,2.4,0.5,3.3,1.5
			c0.6,0.7,0.9,1.6,0.9,2.7h-7.2c0,0.9,0.3,1.7,0.9,2.3c0.6,0.6,1.3,0.9,2.1,0.9c0.4,0,0.8-0.1,1.2-0.2c0.4-0.1,0.7-0.3,1-0.6
			C176.3,52.3,176.6,51.9,176.9,51.4z M176.9,49.3c-0.1-0.5-0.3-1-0.6-1.3c-0.3-0.3-0.6-0.6-1-0.8c-0.4-0.2-0.9-0.3-1.4-0.3
			c-0.8,0-1.5,0.3-2,0.8c-0.4,0.4-0.7,0.9-0.9,1.6H176.9z"/>
		<path class="st1" d="M184,47l-0.7,0.7c-0.5-0.5-1.1-0.8-1.6-0.8c-0.3,0-0.6,0.1-0.9,0.3c-0.2,0.2-0.4,0.5-0.4,0.8
			c0,0.3,0.1,0.5,0.3,0.7c0.2,0.2,0.6,0.5,1.2,0.8c0.8,0.4,1.3,0.8,1.6,1.1c0.3,0.4,0.4,0.8,0.4,1.3c0,0.7-0.2,1.2-0.7,1.7
			c-0.5,0.5-1,0.7-1.7,0.7c-0.5,0-0.9-0.1-1.3-0.3c-0.4-0.2-0.8-0.5-1-0.8l0.6-0.7c0.5,0.6,1.1,0.9,1.7,0.9c0.4,0,0.8-0.1,1-0.4
			c0.3-0.3,0.4-0.6,0.4-0.9c0-0.3-0.1-0.6-0.3-0.8c-0.2-0.2-0.6-0.5-1.3-0.8c-0.7-0.4-1.2-0.7-1.5-1.1c-0.3-0.4-0.4-0.8-0.4-1.2
			c0-0.6,0.2-1.1,0.6-1.5c0.4-0.4,0.9-0.6,1.6-0.6C182.5,45.9,183.2,46.2,184,47z"/>
		<path class="st1" d="M192.5,51.4l0.9,0.5c-0.3,0.6-0.6,1-1,1.3c-0.4,0.3-0.8,0.6-1.3,0.8c-0.5,0.2-1,0.3-1.6,0.3
			c-1.3,0-2.3-0.4-3-1.3c-0.7-0.9-1.1-1.8-1.1-2.9c0-1,0.3-1.9,0.9-2.7c0.8-1,1.8-1.5,3.2-1.5c1.4,0,2.4,0.5,3.3,1.5
			c0.6,0.7,0.9,1.6,0.9,2.7h-7.2c0,0.9,0.3,1.7,0.9,2.3c0.6,0.6,1.3,0.9,2.1,0.9c0.4,0,0.8-0.1,1.2-0.2c0.4-0.1,0.7-0.3,1-0.6
			C191.9,52.3,192.2,51.9,192.5,51.4z M192.5,49.3c-0.1-0.5-0.3-1-0.6-1.3c-0.3-0.3-0.6-0.6-1-0.8c-0.4-0.2-0.9-0.3-1.4-0.3
			c-0.8,0-1.5,0.3-2,0.8c-0.4,0.4-0.7,0.9-0.9,1.6H192.5z"/>
		<path class="st1" d="M203.4,46.1v8h-1v-1.4c-0.4,0.5-0.9,0.9-1.4,1.2c-0.5,0.3-1.1,0.4-1.8,0.4c-1.1,0-2.1-0.4-2.9-1.2
			c-0.8-0.8-1.2-1.8-1.2-3c0-1.1,0.4-2.1,1.2-2.9c0.8-0.8,1.8-1.2,2.9-1.2c0.7,0,1.2,0.1,1.8,0.4c0.5,0.3,1,0.7,1.4,1.3v-1.5H203.4z
			 M199.4,46.9c-0.6,0-1.1,0.1-1.6,0.4c-0.5,0.3-0.9,0.7-1.1,1.2c-0.3,0.5-0.4,1-0.4,1.6c0,0.6,0.1,1.1,0.4,1.6
			c0.3,0.5,0.7,0.9,1.2,1.2c0.5,0.3,1,0.4,1.6,0.4c0.6,0,1.1-0.1,1.6-0.4c0.5-0.3,0.9-0.7,1.2-1.1c0.3-0.5,0.4-1,0.4-1.6
			c0-0.9-0.3-1.7-0.9-2.3C201,47.2,200.2,46.9,199.4,46.9z"/>
		<path class="st1" d="M205.4,46.1h1v1.2c0.3-0.5,0.6-0.8,1-1c0.3-0.2,0.7-0.3,1.1-0.3c0.3,0,0.6,0.1,0.9,0.3l-0.5,0.9
			c-0.2-0.1-0.4-0.1-0.5-0.1c-0.3,0-0.7,0.1-1,0.4c-0.3,0.3-0.6,0.7-0.7,1.3c-0.1,0.5-0.2,1.4-0.2,2.8V54h-1V46.1z"/>
		<path class="st1" d="M218,47.7l-0.8,0.5c-0.7-0.9-1.7-1.4-2.9-1.4c-1,0-1.8,0.3-2.4,0.9c-0.6,0.6-1,1.4-1,2.3
			c0,0.6,0.1,1.1,0.4,1.6c0.3,0.5,0.7,0.9,1.2,1.2c0.5,0.3,1.1,0.4,1.7,0.4c1.2,0,2.1-0.5,2.9-1.4l0.8,0.5c-0.4,0.6-0.9,1-1.5,1.3
			c-0.6,0.3-1.4,0.5-2.2,0.5c-1.3,0-2.3-0.4-3.1-1.2c-0.8-0.8-1.2-1.8-1.2-2.9c0-0.8,0.2-1.5,0.6-2.1s0.9-1.2,1.6-1.5
			c0.7-0.4,1.4-0.6,2.3-0.6c0.5,0,1,0.1,1.5,0.2c0.5,0.2,0.9,0.4,1.2,0.6C217.5,47,217.7,47.3,218,47.7z"/>
		<path class="st1" d="M220,43h1v4.5c0.4-0.5,0.9-1,1.4-1.2c0.5-0.3,1-0.4,1.6-0.4c0.6,0,1.1,0.2,1.6,0.5c0.5,0.3,0.8,0.7,1,1.2
			c0.2,0.5,0.3,1.3,0.3,2.4V54h-1v-3.8c0-0.9,0-1.5-0.1-1.8c-0.1-0.5-0.4-0.9-0.7-1.2c-0.3-0.3-0.8-0.4-1.3-0.4
			c-0.6,0-1.2,0.2-1.7,0.6c-0.5,0.4-0.8,0.9-1,1.5c-0.1,0.4-0.1,1.1-0.1,2.2V54h-1V43z"/>
		<path class="st1" d="M233.6,42.8c0.2,0,0.4,0.1,0.6,0.2c0.2,0.2,0.2,0.4,0.2,0.6c0,0.2-0.1,0.4-0.2,0.6c-0.2,0.2-0.4,0.2-0.6,0.2
			c-0.2,0-0.4-0.1-0.6-0.2c-0.2-0.2-0.2-0.4-0.2-0.6c0-0.2,0.1-0.4,0.2-0.6C233.2,42.9,233.4,42.8,233.6,42.8z M233.1,46.1h1v8h-1
			V46.1z"/>
		<path class="st1" d="M236.2,46.1h1v1.4c0.4-0.5,0.9-1,1.4-1.2c0.5-0.3,1-0.4,1.6-0.4c0.6,0,1.1,0.2,1.6,0.5c0.5,0.3,0.8,0.7,1,1.2
			s0.3,1.3,0.3,2.4V54h-1v-3.8c0-0.9,0-1.5-0.1-1.8c-0.1-0.5-0.3-0.9-0.7-1.2c-0.3-0.3-0.8-0.4-1.3-0.4c-0.6,0-1.2,0.2-1.7,0.6
			c-0.5,0.4-0.8,0.9-1,1.5c-0.1,0.4-0.1,1.1-0.1,2.2V54h-1V46.1z"/>
		<path class="st1" d="M249.5,43.3h1.1V54h-1.1V43.3z"/>
		<path class="st1" d="M252.9,46.1h1v1.4c0.4-0.5,0.9-1,1.4-1.2c0.5-0.3,1-0.4,1.6-0.4c0.6,0,1.1,0.2,1.6,0.5c0.5,0.3,0.8,0.7,1,1.2
			c0.2,0.5,0.3,1.3,0.3,2.4V54h-1v-3.8c0-0.9,0-1.5-0.1-1.8c-0.1-0.5-0.3-0.9-0.7-1.2c-0.3-0.3-0.8-0.4-1.3-0.4
			c-0.6,0-1.2,0.2-1.7,0.6c-0.5,0.4-0.8,0.9-1,1.5c-0.1,0.4-0.1,1.1-0.1,2.2V54h-1V46.1z"/>
		<path class="st1" d="M270,43v11h-1v-1.4c-0.4,0.5-0.9,0.9-1.4,1.2c-0.5,0.3-1.1,0.4-1.8,0.4c-1.1,0-2.1-0.4-2.9-1.2
			c-0.8-0.8-1.2-1.8-1.2-3c0-1.1,0.4-2.1,1.2-2.9c0.8-0.8,1.8-1.2,2.9-1.2c0.7,0,1.2,0.1,1.8,0.4c0.5,0.3,1,0.7,1.4,1.3V43H270z
			 M265.9,46.9c-0.6,0-1.1,0.1-1.6,0.4c-0.5,0.3-0.9,0.7-1.1,1.2c-0.3,0.5-0.4,1-0.4,1.6c0,0.6,0.1,1.1,0.4,1.6
			c0.3,0.5,0.7,0.9,1.2,1.2c0.5,0.3,1,0.4,1.6,0.4c0.6,0,1.1-0.1,1.6-0.4c0.5-0.3,0.9-0.7,1.2-1.1c0.3-0.5,0.4-1,0.4-1.6
			c0-0.9-0.3-1.7-0.9-2.3C267.5,47.2,266.8,46.9,265.9,46.9z"/>
		<path class="st1" d="M276.1,45.9c1.2,0,2.2,0.4,3,1.3c0.7,0.8,1.1,1.8,1.1,2.9c0,1.1-0.4,2.1-1.2,2.9c-0.8,0.8-1.8,1.2-3,1.2
			c-1.2,0-2.2-0.4-3-1.2c-0.8-0.8-1.2-1.8-1.2-2.9c0-1.1,0.4-2.1,1.1-2.9C273.8,46.3,274.9,45.9,276.1,45.9z M276.1,46.9
			c-0.9,0-1.6,0.3-2.2,0.9c-0.6,0.6-0.9,1.4-0.9,2.3c0,0.6,0.1,1.1,0.4,1.6c0.3,0.5,0.7,0.9,1.1,1.2c0.5,0.3,1,0.4,1.6,0.4
			c0.6,0,1.1-0.1,1.6-0.4c0.5-0.3,0.9-0.7,1.1-1.2c0.3-0.5,0.4-1,0.4-1.6c0-0.9-0.3-1.7-0.9-2.3C277.7,47.2,276.9,46.9,276.1,46.9z"
			/>
		<path class="st1" d="M282.1,46.1h1v1.4c0.4-0.5,0.9-1,1.4-1.2c0.5-0.3,1-0.4,1.6-0.4c0.6,0,1.1,0.2,1.6,0.5c0.5,0.3,0.8,0.7,1,1.2
			c0.2,0.5,0.3,1.3,0.3,2.4V54h-1v-3.8c0-0.9,0-1.5-0.1-1.8c-0.1-0.5-0.3-0.9-0.7-1.2c-0.3-0.3-0.8-0.4-1.3-0.4
			c-0.6,0-1.2,0.2-1.7,0.6c-0.5,0.4-0.8,0.9-1,1.5c-0.1,0.4-0.1,1.1-0.1,2.2V54h-1V46.1z"/>
		<path class="st1" d="M298,51.4l0.9,0.5c-0.3,0.6-0.6,1-1,1.3c-0.4,0.3-0.8,0.6-1.3,0.8c-0.5,0.2-1,0.3-1.6,0.3
			c-1.3,0-2.3-0.4-3-1.3c-0.7-0.9-1.1-1.8-1.1-2.9c0-1,0.3-1.9,0.9-2.7c0.8-1,1.8-1.5,3.2-1.5c1.4,0,2.4,0.5,3.3,1.5
			c0.6,0.7,0.9,1.6,0.9,2.7h-7.2c0,0.9,0.3,1.7,0.9,2.3c0.6,0.6,1.3,0.9,2.1,0.9c0.4,0,0.8-0.1,1.2-0.2c0.4-0.1,0.7-0.3,1-0.6
			C297.4,52.3,297.7,51.9,298,51.4z M298,49.3c-0.1-0.5-0.3-1-0.6-1.3c-0.3-0.3-0.6-0.6-1-0.8c-0.4-0.2-0.9-0.3-1.4-0.3
			c-0.8,0-1.5,0.3-2,0.8c-0.4,0.4-0.7,0.9-0.9,1.6H298z"/>
		<path class="st1" d="M305,47l-0.7,0.7c-0.5-0.5-1.1-0.8-1.6-0.8c-0.3,0-0.6,0.1-0.9,0.3c-0.2,0.2-0.4,0.5-0.4,0.8
			c0,0.3,0.1,0.5,0.3,0.7c0.2,0.2,0.6,0.5,1.2,0.8c0.8,0.4,1.3,0.8,1.6,1.1c0.3,0.4,0.4,0.8,0.4,1.3c0,0.7-0.2,1.2-0.7,1.7
			c-0.5,0.5-1,0.7-1.7,0.7c-0.5,0-0.9-0.1-1.3-0.3c-0.4-0.2-0.8-0.5-1-0.8l0.6-0.7c0.5,0.6,1.1,0.9,1.7,0.9c0.4,0,0.8-0.1,1-0.4
			c0.3-0.3,0.4-0.6,0.4-0.9c0-0.3-0.1-0.6-0.3-0.8c-0.2-0.2-0.6-0.5-1.3-0.8c-0.7-0.4-1.2-0.7-1.5-1.1c-0.3-0.4-0.4-0.8-0.4-1.2
			c0-0.6,0.2-1.1,0.6-1.5c0.4-0.4,0.9-0.6,1.6-0.6C303.5,45.9,304.3,46.2,305,47z"/>
		<path class="st1" d="M307.2,42.8c0.2,0,0.4,0.1,0.6,0.2c0.2,0.2,0.2,0.4,0.2,0.6c0,0.2-0.1,0.4-0.2,0.6c-0.2,0.2-0.4,0.2-0.6,0.2
			c-0.2,0-0.4-0.1-0.6-0.2c-0.2-0.2-0.2-0.4-0.2-0.6c0-0.2,0.1-0.4,0.2-0.6C306.8,42.9,307,42.8,307.2,42.8z M306.7,46.1h1v8h-1
			V46.1z"/>
		<path class="st1" d="M317.8,46.1v8h-1v-1.4c-0.4,0.5-0.9,0.9-1.4,1.2c-0.5,0.3-1.1,0.4-1.8,0.4c-1.1,0-2.1-0.4-2.9-1.2
			c-0.8-0.8-1.2-1.8-1.2-3c0-1.1,0.4-2.1,1.2-2.9c0.8-0.8,1.8-1.2,2.9-1.2c0.7,0,1.2,0.1,1.8,0.4c0.5,0.3,1,0.7,1.4,1.3v-1.5H317.8z
			 M313.7,46.9c-0.6,0-1.1,0.1-1.6,0.4c-0.5,0.3-0.9,0.7-1.1,1.2c-0.3,0.5-0.4,1-0.4,1.6c0,0.6,0.1,1.1,0.4,1.6
			c0.3,0.5,0.7,0.9,1.2,1.2c0.5,0.3,1,0.4,1.6,0.4c0.6,0,1.1-0.1,1.6-0.4c0.5-0.3,0.9-0.7,1.2-1.1c0.3-0.5,0.4-1,0.4-1.6
			c0-0.9-0.3-1.7-0.9-2.3C315.3,47.2,314.6,46.9,313.7,46.9z"/>
	</g>
</g>
</svg>
